<?xml version="1.0" encoding="iso-8859-1"?>
<!-- Generator: Adobe Illustrator 19.0.0, SVG Export Plug-In . SVG Version: 6.00 Build 0)  -->
<svg version="1.1" id="Layer_1" xmlns="http://www.w3.org/2000/svg" xmlns:xlink="http://www.w3.org/1999/xlink" x="0px" y="0px"
	 viewBox="0 0 456.744 456.744" style="enable-background:new 0 0 456.744 456.744;" xml:space="preserve">
<g id="XMLID_1_">
	<g>
		<path d="M385.411,376.744h-2.977c-10.021-66.621-44.586-121.687-90.847-148.372c46.261-26.685,80.826-81.751,90.847-148.372h2.977
			c22.091,0,40-17.908,40-40s-17.909-40-40-40H71.333c-22.091,0-40,17.908-40,40s17.909,40,40,40h2.977
			c10.021,66.621,44.586,121.687,90.847,148.372c-46.261,26.685-80.826,81.751-90.847,148.372h-2.977c-22.091,0-40,17.908-40,40
			c0,22.092,17.909,40,40,40h314.078c22.091,0,40-17.908,40-40C425.411,394.652,407.502,376.744,385.411,376.744z M213.372,305.805
			c0,12.832-6.094,24.818-16.248,32.663c-14.237,10.999-28.26,27.204-32.683,45.863h-39.699c3.871-25.73,12.452-49.93,24.815-69.986
			c11.326-18.373,25.532-32.826,41.082-41.795c7.171-4.137,14.854-6.997,22.733-8.593V305.805z M190.64,184.195
			c-15.55-8.97-29.756-23.423-41.083-41.796c-12.364-20.056-20.945-44.256-24.815-69.985h207.26
			c-3.87,25.729-12.451,49.929-24.815,69.985c-11.326,18.373-25.533,32.826-41.083,41.796
			C242.752,197.665,213.991,197.665,190.64,184.195z M292.303,384.329v0.001c-4.423-18.659-18.446-34.863-32.682-45.863
			c-10.154-7.845-16.248-19.831-16.248-32.663v-41.849c7.878,1.596,15.561,4.457,22.732,8.593
			c15.55,8.97,29.756,23.422,41.082,41.795c12.364,20.056,20.944,44.256,24.815,69.986H292.303z"/>
	</g>
</g>
<g>
</g>
<g>
</g>
<g>
</g>
<g>
</g>
<g>
</g>
<g>
</g>
<g>
</g>
<g>
</g>
<g>
</g>
<g>
</g>
<g>
</g>
<g>
</g>
<g>
</g>
<g>
</g>
<g>
</g>
</svg>
